<svg xmlns="http://www.w3.org/2000/svg" width="960" height="1280"><path d="M881 494c5.8 5.4 9 11.3 9.6 19.4-.2 6-2.6 10.1-6.6 14.6-3.2 2.2-4.3 2.2-8 2l-1-2.3c-8-17-20.8-25.9-38-32.7a160 160 0 0 0-115.6 3.3l-8.8 4.4A94 94 0 0 0 690 520l-2 1.7c-32.2 29.2-42.8 84.1-52.4 124.4l-.7 3-1.3 5.5-.6 2.5-.5 2.1c-.5 1.8-.5 1.8-1.5 3.8l8-7 2-1.8c5.3-5.7 6-11.4 7-18.8a89 89 0 0 1 21-46.4l1.6-2a46 46 0 0 1 20.4-15c6.5-.5 12.5-1 18 3l2 3h2l4-5c3.5-2.3 4.9-2.3 9-2 2.4 1 2.4 1 4 2 1 7.2-2.3 11.1-6 17-10.9 18-16.3 42-16 63 9-3 13.5-12.3 17.7-20.3 4.5-8.8 8.3-18 12.3-27l8-17.6 1-2.3a31 31 0 0 1 14-15.8c4-.6 6-.6 9.4 1.3 3.5 6 1.8 14.1.6 20.7l1.7-2c17.1-19 17.1-19 28.7-20.4 4.9.5 6.2 2 9.6 5.4 3.5 5.6 2.9 12.7 1.6 19q-2 7.5-4.6 15c-3.1 9.3-6.2 18.6-8 28.3l-.3 2a34 34 0 0 0 .3 12.7c4-.5 5.9-1.4 8.5-4.5l1.7-2a66 66 0 0 0 10.1-23c5.6-20.3 14.1-39 32.2-51.2A27 27 0 0 1 871 568a27 27 0 0 1 11 8h2l.8-1.6 1-2.2 1-2.2a16 16 0 0 1 4.2-5c6.8-1.5 6.8-1.5 10.9.3 4 3.2 4 3.2 4.4 6-.4 3.4-1.6 5.2-3.4 8-11 18.2-15 39.4-19.5 59.9C859.6 747.7 859.6 747.7 817 780l-2.2 1.7a135 135 0 0 1-46.8 22l-2.3.7a163 163 0 0 1-39.7 4h-2.3q-19.5 0-38.7-3.4l-2.8-.5a418 418 0 0 1-84.9-25l-2.4-1-2-.9c-2-.8-2-.8-4.9-.6-2 2.5-2 2.5-4 5.7-13.2 19.8-30.6 38-54.4 44a46 46 0 0 1-34.5-6.8 34 34 0 0 1-12-24.4c-.6-16.7 7.7-31.8 18.6-44l2.3-2.3q2.6-3 5-6.2l-2.2-.5q-10.8-2.7-21.2-6.4-16.6-5.5-33.6-9.1l-2.6-.5q-37.3-8.1-75.4-7.5h-2.1c-42.8.6-96 14.1-127.3 45.4q-3.7 4-7 8.4A17.7 17.7 0 0 1 213 777c-2.3-2.2-3-4-4-7 0-7.6 3.2-14.6 8.4-20.1A159 159 0 0 1 271 720l2.7-1c23.9-8 49-13.6 74.3-15l3.5-.2c28.5-1.5 56.3.3 84.5 5.2l3.5.6a382 382 0 0 1 75.7 20.6c4 1.6 4 1.6 8.2 1q4-2 7.6-4.9 8.8-6.2 18.3-11l6.9-3.7 3.4-1.8a1770 1770 0 0 0 33.1-18.1l3-1.7 3.3-2 2.4-1.3c7-4 9.2-8 11.3-15.7l1-3.7 1-3.7c1.8-6.7 1.8-6.7 2.3-13.6l-1.5 2.4c-11.4 17.5-11.4 17.5-21.5 20.6-4.4 0-6.3-.5-9.7-3-5.5-7.1-5.9-14.4-6.3-23l-1.5 2.5c-11.3 19.1-11.3 19.1-20.5 23.5-4.1.7-6.4.9-10-1.1a16 16 0 0 1-7-11.9q-.3-8.4 1.4-16.6l.5-2.5c2-9.9 5.4-19.4 8.7-29A72 72 0 0 0 554 590l-3.6 1.7-2 1c-19.4 11.2-27.8 38-33.4 58.3l-1.3 5-.6 2.5-1.2 4.6A17 17 0 0 1 505 674c-2.4.6-2.4.6-4.6.5H498c-2.1-.5-2.1-.5-3.9-1.5-2-3.2-1.6-6.4-1.2-10 1-3.6 1-3.6 2.6-7.2l1.6-4.3 1-2.2q6.4-16.8 11.2-34.2l.8-2.8c1.2-4.5 2.1-8.5 1.8-13.3a376 376 0 0 0-15 32.5c-14.3 34.7-14.3 34.7-27.2 41.7a15 15 0 0 1-10.6 1c-6-4-7.5-9.5-9.2-16.2-1.7-19.8 4.5-39.8 12-57.8l2-4.7c5.1-13.7 5.1-13.7 10-16.7 3.1-1.2 5.6-1.2 9-.8a11 11 0 0 1 4 5c-.3 5-2.3 9-4.7 13.4-9.8 19-16.5 38-15.3 59.6 7.8-2.4 12.2-10.6 16-17.5q4.5-9 8.6-18.2a405 405 0 0 1 15-30.7c2.3-4.1 4.8-7.3 8.4-10.6l1.8-1.8c3.5-2 6.2-1.6 10.2-1.2a8 8 0 0 1 3 3c.3 2.4.3 2.4.3 5.2l-.1 2.7q-.4 5.5-1.2 11.1l2.1-2.6c16.2-19.6 16.2-19.6 27.5-20.8a18 18 0 0 1 9.4 3.4c3.7 5 3.8 10 3 16-2.7 11.8-7 23.3-11 34.7l-1.1 3.4-1 3q-2.2 7.5-2 15.3v3.2l.1 2.4c10.2-3.4 15.4-15.9 20-25a317 317 0 0 0 17.1-44.7c2-6.4 3.6-10.1 8.9-14.3 3.6-1.2 6.3-1.3 10-1 2.6 1.4 3.7 2.1 4.7 4.9.7 4.5-2.2 9.1-4.2 13A155 155 0 0 0 595 656h5l1-3 5-5a74 74 0 0 0 11-16.4c6.9-12.7 12.2-26 17-39.6a191 191 0 0 1 44-73l2.6-2.7c46.7-49 145-67.7 200.4-22.3m-21.4 89.2L857 586l-1.7 1.8a75 75 0 0 0-19.5 53c.3 6 .3 6 3.2 11.2 4.4.6 6.5.3 10.4-2 11.6-11.2 25-37 27.6-53l-.2-6.4-.3-3.4c-.5-3.4-1.4-5.4-3.5-8.2-5.4-2.3-9.4.5-13.4 4.2M684 592c-11.4 15.6-22.6 37.1-20 57 .8 2.7.8 2.7 2 5 2.2 1.3 2.2 1.3 5 1 17-10.7 25.7-39.1 32-57.2l1.3-3.5c.8-3.8.6-6.5-.3-10.3-1.9-2.3-1.9-2.3-4.8-2.3-6.7.6-11 5.4-15.2 10.3m96 3c-12.6 14.6-19 33.4-23.7 51.8l-1 3.6-1.7 7-.8 3.3-.7 2.9c-1.4 3.1-3 4-6.1 5.4-4 .5-6 .6-9.5-1.6-2-3.3-1.3-4.7-.5-8.4l2-5.7 1.2-3.4 1.4-3.5q5.5-15 10-30.5l1-3.4q2.9-10 3.4-20.5a42 42 0 0 0-7.4 12.6l-1.9 4.3-.9 2.2-3.3 7.4-4.9 11.1c-14.3 33.4-14.3 33.4-25 38.5-4.8 1.4-9 1-13.6-1.1-1.3-2.3-1.3-2.3-2-5l-1-2.3c-1.4-3.8-1.4-7.4-1.7-11.4l-.3-2.3-2-1-1.8 2.9-2.5 3.8-1.1 1.9c-6.3 9.8-6.3 9.8-11.2 13.1l-1.7 1.3a20 20 0 0 1-13.7 2 18 18 0 0 1-10-11c-3.8.5-5.2 2-7.6 5-3.2 4-3.2 4-5.4 5v2l-1.6.6a19 19 0 0 0-10 12.3l-2.8 11.9-.8 3.2c-3.3 12.6-8 24.9-12.9 37l-1.2 3.1q-3.8 9.4-8.6 18.4c-1.3 2.5-1.3 2.5-1.1 5.5a427 427 0 0 0 89 28l2.8.5c35 6.4 73.5 3.8 104.2-15.5l1.7-1c15.7-10 28.4-23.5 38.2-39.2l3-4.6C849.5 709.6 865 672 865 646c-4 1.3-5.3 4-7.6 7.2A35 35 0 0 1 840 667a17 17 0 0 1-14-4c-3.4-4.1-4.8-8-6-13q-4.3 4.2-7.8 9a27 27 0 0 1-13.8 9.9q-5.6.2-10-3c-6-8.3-5.6-16.9-4.2-26.4 2-11.8 5.9-23.1 9.8-34.4a41 41 0 0 0 2-14V586c-7.1-.6-11.2 4.2-16 9m-176 98-2.4 1.5q-8.7 5.4-17.5 10.4-15.9 9-30.5 19.8l-2.3 1.6c-7 5-7 5-13.3 10.7v2l27.5 11.5 2.3 1q6 2.6 12.2 4.5c11.6-19 19-40 26-61zm-82.3 59.1c-12.5 15.4-21.2 30-21.1 50.3a17 17 0 0 0 6 12c4.8 3.2 8.7 3.2 14.4 2.6 21.7-5.8 38.2-26.8 49.8-44.9 1.4-2 1.4-2 1.2-4.1l-29.4-12.2c-10.7-5.7-10.7-5.7-20.9-3.7M229 482.5c6.4 6 10.6 14 11.2 22.7A47 47 0 0 1 230 539c-6.2 5.5-11.6 6.5-19.6 6.4q-7.3-.9-12.4-6.4c-.7-2.2-.7-2.2-1-4l1.8.1c3.9.2 6.7.1 10.3-1.4a45 45 0 0 0 13.9-30.2c0-5.7-.8-10-4.4-14.4-6.5-5.1-12.5-4.7-20.6-4.1-35 6.2-64.5 35.7-84.3 63.5q-7 10.3-12.7 21.5l-1.9 3.5C83.1 604.4 72.3 642.8 83 677a34 34 0 0 0 17 20 37 37 0 0 0 29-2.4c9-4.8 16.6-11.6 24-18.6l2.2-2c14.6-13.6 25.4-33 33.8-51a45 45 0 0 0-24 9 31 31 0 0 1-10.5-2c-2.1-2.8-2-5.2-1.9-8.7 1-5.5 3.7-9 7.9-12.5 10.4-7.1 24.9-7 37-8.5l5.1-.8c4.6-1 8-1.2 12.2 1 2.7 3 4 5.5 4.2 9.5q-1.9 5.7-5 11l-3 6.2-1.6 3a369 369 0 0 0-22.4 57.2l-.8 2.8A60 60 0 0 0 183 718c1.8.8 1.8.8 4 1 2-1 2-1 4-2.6l2-1.7q2.6-2.2 4.8-4.6c2.2-2.1 2.2-2.1 5.2-2.1a52 52 0 0 1-18.9 27.9c-3.6 1.9-7 2.4-11.1 2.1a17 17 0 0 1-10-8 44 44 0 0 1 .5-22.5l.5-2.4c2.5-11.2 6.3-22.2 10-33.1l-1.7 2.1c-14.7 18.4-33.7 34.6-57.3 39.9a51 51 0 0 1-27-3l-2.2-1c-12-6-19.7-16.5-24-28.9-9.7-29-2.9-62.2 7.2-90.1l.7-2.1c11.5-32.2 33.2-62 59.3-83.9l2.2-1.9c24.2-20 68.5-43.7 97.7-20.6M501 539c2 2.4 2 4 2.4 7.2-.7 6.9-3.2 12-8 16.9a14 14 0 0 1-11.4 3.4c-3-.7-4.3-2-6-4.5-2-4-1.6-9-.3-13.2 2.8-6.2 6.5-9.6 12.7-12.3 4.5-.6 6.7.2 10.6 2.5"/><path d="M456 565c3.5 1.4 4.8 2.7 6.9 5.8a14 14 0 0 1 .1 10.2c-3 3.7-6.7 6.3-10.6 9.2A125 125 0 0 0 428 614l-4.7 5.4c-3.5 4.2-3.5 4.2-4 9.3l.9 3 1 3.4 1.1 3.5 1.1 3.7A96 96 0 0 0 442 681l1.8 2.1a55 55 0 0 0 33.8 15.3c12.5.4 26.1-2.8 35.6-11.4 4-4.3 6.8-8.2 6.8-14.3-.2-4.6-.2-4.6-2.6-8.5L516 663l1-3c3.9.2 6.3.5 9.4 2.9 2.7 5.3 2.5 10.8.9 16.6-5.4 13.1-18 21-30.5 26.5a65 65 0 0 1-48.6-1.4A60 60 0 0 1 435 695l-2.4-1.8a45 45 0 0 1-9.4-11.5A155 155 0 0 1 406 644a76 76 0 0 0-10.1 15.7q-4.8 8.9-8.6 18a25 25 0 0 1-8 11.6 18 18 0 0 1-13.2-.5c-3.1-2.7-3.8-4.6-4.7-8.5 1-5 4.1-7.8 7.6-11.3l1.5-1.6 3.5-3.4h2l.7-1.6q2.7-4.5 6.3-8.3c11.6-12.1 11.6-12.1 17.9-26.1a292 292 0 0 0-7.4-26.8l-.9-2.8c-.6-2.4-.6-2.4-.6-5.4q-8 6.9-15.6 14c-2.4 2-2.4 2-5 3.2-3.8 2.9-3.8 6.7-4.5 11.2l-1.4 8.2a78 78 0 0 1-28 46.8A26 26 0 0 1 320 680c-5.8-2-11-4.6-14.2-10l-2-4.1c-.9-2.2-.9-2.2-2.8-4.9l-1.5 2.2a45 45 0 0 1-18 17.4c-4.5.5-6.7-.4-10.5-2.6-6.1-5-7.6-11.6-9-19l-1.2 2c-5 8.2-11.2 18-20.8 21-5 .6-8.8.6-13.4-1.7-6.4-5.6-9-11-10-19.5-.9-22.8 8-44.4 22.4-61.8l1.3-1.8c5-6.7 13.5-12.5 21.7-14.2 6.3-.6 11.6-.7 17 3 1.9 1.7 1.9 1.7 3 3 3.7-1.2 4.6-3 7-6 2.8-1.4 4.9-1.3 8-1 2.4 1.7 2.4 1.7 4 4-.3 4.5-2.5 8-4.7 11.9-9.8 18-21.5 45.3-16.3 66.1 3.9-.3 6-1.4 8.6-4.3 7.1-8.8 12.3-17 14.6-28.1A94 94 0 0 1 318 599l2-3.2c6-9.3 12-14.3 22.8-17.4 3.3-.5 4.3-.4 7.6.7 2.7 2 3.2 3 4.6 5.9l2.8 1.4c4 2 5.8 4 8.2 7.6q1 4 1 8l2.8-1.4q2.7-1.4 5.4-2.5c2.3-1.4 2.7-2.7 3.8-5.1l1.9-2.3c2.9-3.7 4.6-7.7 6.5-12 1.7-2.8 2.8-4.1 5.6-5.7 4.6-.5 6.8-.7 10.9 1.7 3.4 3.7 4.3 7.8 5.4 12.7l.6 3 .7 3.2L414 609l2 1 .7-2.1c1.5-3.4 3.5-6 5.8-8.8q5.5-7 10.7-14.3l1.2-1.8q3-4 5.6-8l1.9-2.7 1.5-2.3c3.7-4.7 6.6-5.6 12.6-5m-108.7 25c-3 2.9-4.2 4.4-5 8.6a14 14 0 0 0 4.7 8.4c3.3 1.6 6.4 1.1 10 1 1.2-1 1.2-1 1-3a26 26 0 0 0-5-15c-2.4-1-3.4-1.4-5.7 0m-90.8 10a87 87 0 0 0-22.9 54.1c.4 4 1.1 7.2 2.4 10.9 3.2 1.1 4.6 1.2 7.8-.2 17.2-13 26-43 32.2-62.8.1-3-.4-5-1-8-6.8-4.5-13.4 1.1-18.5 6m72.5 9c-7.6 14-15.3 31.1-11.4 47.4 1.2 3.5 2.5 6.2 5.4 8.6 4 .7 6.5 0 9.9-2 14.6-10 21-27.2 24.1-44v-2l-2 .1c-7 .2-14.9.2-20.7-4.4L331 609z"/></svg>